<svg width="120" height="40" viewBox="0 0 120 40" fill="none" xmlns="http://www.w3.org/2000/svg">
<rect x="0.5" y="0.5" width="119" height="39" rx="6.5" fill="black"/>
<rect x="0.5" y="0.5" width="119" height="39" rx="6.5" stroke="#A6A6A6"/>
<path d="M24.769 20.3008C24.7907 18.6198 25.6934 17.0292 27.1256 16.1488C26.2221 14.8584 24.7088 14.0403 23.1344 13.9911C21.4552 13.8148 19.8272 14.9959 18.9715 14.9959C18.0992 14.9959 16.7817 14.0086 15.363 14.0378C13.5137 14.0975 11.7898 15.1489 10.8901 16.7656C8.95607 20.1141 10.3987 25.0351 12.2513 27.7417C13.1782 29.0671 14.2615 30.5475 15.6789 30.495C17.066 30.4375 17.584 29.6105 19.2583 29.6105C20.9171 29.6105 21.4031 30.495 22.8493 30.4616C24.3377 30.4375 25.2754 29.1304 26.1698 27.7925C26.8358 26.8481 27.3483 25.8044 27.6882 24.7C25.9391 23.9602 24.771 22.2 24.769 20.3008Z" fill="white"/>
<path d="M22.0373 12.2111C22.8489 11.2369 23.2487 9.98469 23.1518 8.72046C21.912 8.85068 20.7668 9.44324 19.9443 10.3801C19.14 11.2954 18.7214 12.5255 18.8006 13.7415C20.0408 13.7542 21.2601 13.1777 22.0373 12.2111Z" fill="white"/>
<path d="M35 14.9609V9.32422H37.1133C37.6732 9.32422 38.1497 9.43359 38.543 9.65234C38.9388 9.87109 39.2409 10.1888 39.4492 10.6055C39.6602 11.0221 39.7656 11.5247 39.7656 12.1133V12.1211C39.7656 12.7227 39.6615 13.2357 39.4531 13.6602C39.2448 14.082 38.9427 14.4049 38.5469 14.6289C38.1536 14.8503 37.6758 14.9609 37.1133 14.9609H35ZM36.0078 14.1133H36.9805C37.3529 14.1133 37.6706 14.0365 37.9336 13.8828C38.1966 13.7292 38.3958 13.5052 38.5312 13.2109C38.6693 12.9167 38.7383 12.5586 38.7383 12.1367V12.1289C38.7383 11.7174 38.668 11.3659 38.5273 11.0742C38.3893 10.7799 38.1888 10.556 37.9258 10.4023C37.6628 10.2487 37.3477 10.1719 36.9805 10.1719H36.0078V14.1133Z" fill="white"/>
<path d="M43.0641 15.0469C42.6396 15.0469 42.2737 14.9583 41.9664 14.7812C41.6591 14.6016 41.4221 14.3464 41.2555 14.0156C41.0914 13.6849 41.0094 13.2891 41.0094 12.8281V12.8203C41.0094 12.3646 41.0927 11.9714 41.2594 11.6406C41.426 11.3073 41.6617 11.0521 41.9664 10.875C42.2737 10.6979 42.6396 10.6094 43.0641 10.6094C43.4885 10.6094 43.8531 10.6979 44.1578 10.875C44.4651 11.0521 44.7021 11.306 44.8687 11.6367C45.0354 11.9674 45.1187 12.362 45.1187 12.8203V12.8281C45.1187 13.2891 45.0354 13.6849 44.8687 14.0156C44.7047 14.3464 44.469 14.6016 44.1617 14.7812C43.857 14.9583 43.4911 15.0469 43.0641 15.0469ZM43.0641 14.2578C43.288 14.2578 43.4781 14.2018 43.6344 14.0898C43.7932 13.9753 43.9143 13.8125 43.9977 13.6016C44.081 13.388 44.1227 13.1315 44.1227 12.832V12.8242C44.1227 12.5221 44.081 12.2656 43.9977 12.0547C43.9143 11.8411 43.7932 11.6784 43.6344 11.5664C43.4781 11.4518 43.288 11.3945 43.0641 11.3945C42.8401 11.3945 42.6487 11.4518 42.4898 11.5664C42.331 11.6784 42.2099 11.8411 42.1266 12.0547C42.0432 12.2656 42.0016 12.5221 42.0016 12.8242V12.832C42.0016 13.1315 42.0432 13.388 42.1266 13.6016C42.2099 13.8151 42.3297 13.9779 42.4859 14.0898C42.6448 14.2018 42.8375 14.2578 43.0641 14.2578Z" fill="white"/>
<path d="M47.1398 14.9609L45.9797 10.6914H46.9563L47.6633 13.9023H47.7336L48.5539 10.6914H49.4797L50.3039 13.9023H50.3742L51.0812 10.6914H52.0461L50.8859 14.9609H49.8703L49.0383 11.8672H48.9719L48.1438 14.9609H47.1398Z" fill="white"/>
<path d="M53.2859 14.9609V10.6914H54.2586V11.3477H54.325C54.4266 11.1159 54.5802 10.9349 54.7859 10.8047C54.9917 10.6745 55.2482 10.6094 55.5555 10.6094C56.032 10.6094 56.3966 10.7474 56.6492 11.0234C56.9018 11.2995 57.0281 11.6914 57.0281 12.1992V14.9609H56.0555V12.4258C56.0555 12.0924 55.9852 11.8424 55.8445 11.6758C55.7065 11.5091 55.4904 11.4258 55.1961 11.4258C55.0034 11.4258 54.8367 11.4688 54.6961 11.5547C54.5555 11.6406 54.4474 11.7617 54.3719 11.918C54.2964 12.0742 54.2586 12.2591 54.2586 12.4727V14.9609H53.2859Z" fill="white"/>
<path d="M58.6156 14.9609V9.03906H59.5883V14.9609H58.6156Z" fill="white"/>
<path d="M63.0547 15.0469C62.6302 15.0469 62.2643 14.9583 61.957 14.7812C61.6497 14.6016 61.4128 14.3464 61.2461 14.0156C61.082 13.6849 61 13.2891 61 12.8281V12.8203C61 12.3646 61.0833 11.9714 61.25 11.6406C61.4167 11.3073 61.6523 11.0521 61.957 10.875C62.2643 10.6979 62.6302 10.6094 63.0547 10.6094C63.4792 10.6094 63.8438 10.6979 64.1484 10.875C64.4557 11.0521 64.6927 11.306 64.8594 11.6367C65.026 11.9674 65.1094 12.362 65.1094 12.8203V12.8281C65.1094 13.2891 65.026 13.6849 64.8594 14.0156C64.6953 14.3464 64.4596 14.6016 64.1523 14.7812C63.8477 14.9583 63.4818 15.0469 63.0547 15.0469ZM63.0547 14.2578C63.2786 14.2578 63.4688 14.2018 63.625 14.0898C63.7839 13.9753 63.9049 13.8125 63.9883 13.6016C64.0716 13.388 64.1133 13.1315 64.1133 12.832V12.8242C64.1133 12.5221 64.0716 12.2656 63.9883 12.0547C63.9049 11.8411 63.7839 11.6784 63.625 11.5664C63.4688 11.4518 63.2786 11.3945 63.0547 11.3945C62.8307 11.3945 62.6393 11.4518 62.4805 11.5664C62.3216 11.6784 62.2005 11.8411 62.1172 12.0547C62.0339 12.2656 61.9922 12.5221 61.9922 12.8242V12.832C61.9922 13.1315 62.0339 13.388 62.1172 13.6016C62.2005 13.8151 62.3203 13.9779 62.4766 14.0898C62.6354 14.2018 62.8281 14.2578 63.0547 14.2578Z" fill="white"/>
<path d="M67.65 15.0312C67.3818 15.0312 67.1409 14.9792 66.9273 14.875C66.7164 14.7708 66.5497 14.6237 66.4273 14.4336C66.3076 14.2409 66.2477 14.0143 66.2477 13.7539V13.7461C66.2477 13.4935 66.3102 13.276 66.4352 13.0938C66.5602 12.9089 66.7437 12.7643 66.9859 12.6602C67.2281 12.556 67.5224 12.4948 67.8688 12.4766L69.4469 12.3789V13.0195L68.0055 13.1133C67.732 13.1289 67.5302 13.1862 67.4 13.2852C67.2698 13.3841 67.2047 13.5221 67.2047 13.6992V13.707C67.2047 13.8893 67.2737 14.0312 67.4117 14.1328C67.5523 14.2344 67.7307 14.2852 67.9469 14.2852C68.1422 14.2852 68.3167 14.2461 68.4703 14.168C68.624 14.0898 68.7451 13.9844 68.8336 13.8516C68.9221 13.7161 68.9664 13.5638 68.9664 13.3945V12.043C68.9664 11.8294 68.8987 11.6667 68.7633 11.5547C68.6279 11.4401 68.4273 11.3828 68.1617 11.3828C67.9404 11.3828 67.7594 11.4219 67.6188 11.5C67.4781 11.5755 67.3831 11.6836 67.3336 11.8242L67.3297 11.8398H66.4117L66.4156 11.8047C66.4469 11.5651 66.5406 11.3555 66.6969 11.1758C66.8531 10.9961 67.0602 10.8568 67.318 10.7578C67.5758 10.6589 67.8727 10.6094 68.2086 10.6094C68.5784 10.6094 68.8909 10.6667 69.1461 10.7812C69.4013 10.8932 69.5953 11.0573 69.7281 11.2734C69.8609 11.487 69.9273 11.7435 69.9273 12.043V14.9609H68.9664V14.375H68.9C68.8219 14.5104 68.7203 14.6276 68.5953 14.7266C68.4729 14.8255 68.3323 14.901 68.1734 14.9531C68.0146 15.0052 67.8401 15.0312 67.65 15.0312Z" fill="white"/>
<path d="M73.0344 15.0312C72.6802 15.0312 72.3716 14.9427 72.1086 14.7656C71.8456 14.5859 71.6424 14.3307 71.4992 14C71.356 13.6693 71.2844 13.2799 71.2844 12.832V12.8242C71.2844 12.3711 71.3547 11.9805 71.4953 11.6523C71.6385 11.3216 71.8404 11.0677 72.1008 10.8906C72.3638 10.7109 72.675 10.6211 73.0344 10.6211C73.2297 10.6211 73.412 10.6523 73.5812 10.7148C73.7505 10.7747 73.899 10.8607 74.0266 10.9727C74.1568 11.0846 74.2583 11.2174 74.3312 11.3711H74.4016V9.03906H75.3703V14.9609H74.4016V14.293H74.3312C74.2531 14.4466 74.1503 14.5794 74.0227 14.6914C73.8977 14.8008 73.7518 14.8854 73.5852 14.9453C73.4185 15.0026 73.2349 15.0312 73.0344 15.0312ZM73.3391 14.2109C73.5604 14.2109 73.7505 14.1562 73.9094 14.0469C74.0708 13.9349 74.1945 13.776 74.2805 13.5703C74.369 13.362 74.4133 13.1159 74.4133 12.832V12.8242C74.4133 12.5378 74.369 12.2917 74.2805 12.0859C74.1945 11.8802 74.0708 11.7214 73.9094 11.6094C73.7505 11.4974 73.5604 11.4414 73.3391 11.4414C73.1203 11.4414 72.9302 11.4974 72.7687 11.6094C72.6099 11.7188 72.4875 11.8776 72.4016 12.0859C72.3156 12.2917 72.2727 12.5378 72.2727 12.8242V12.832C72.2727 13.1185 72.3156 13.3646 72.4016 13.5703C72.4875 13.776 72.6099 13.9349 72.7687 14.0469C72.9276 14.1562 73.1177 14.2109 73.3391 14.2109Z" fill="white"/>
<path d="M79.8422 14.9609V11.4453H79.143V10.6914H79.8422V10.2695C79.8422 9.98307 79.8904 9.74609 79.9867 9.55859C80.0857 9.37109 80.238 9.23177 80.4437 9.14062C80.6495 9.04688 80.9099 9 81.225 9C81.3292 9 81.4255 9.00391 81.5141 9.01172C81.6026 9.01693 81.6846 9.02604 81.7602 9.03906V9.71875C81.7237 9.71354 81.6768 9.70964 81.6195 9.70703C81.5622 9.70182 81.4997 9.69922 81.432 9.69922C81.2029 9.69922 81.0401 9.7526 80.9437 9.85938C80.8474 9.96354 80.7992 10.1185 80.7992 10.3242V10.6914H81.725V11.4453H80.8148V14.9609H79.8422Z" fill="white"/>
<path d="M84.75 15.0469C84.3255 15.0469 83.9596 14.9583 83.6523 14.7812C83.3451 14.6016 83.1081 14.3464 82.9414 14.0156C82.7773 13.6849 82.6953 13.2891 82.6953 12.8281V12.8203C82.6953 12.3646 82.7786 11.9714 82.9453 11.6406C83.112 11.3073 83.3477 11.0521 83.6523 10.875C83.9596 10.6979 84.3255 10.6094 84.75 10.6094C85.1745 10.6094 85.5391 10.6979 85.8438 10.875C86.151 11.0521 86.388 11.306 86.5547 11.6367C86.7214 11.9674 86.8047 12.362 86.8047 12.8203V12.8281C86.8047 13.2891 86.7214 13.6849 86.5547 14.0156C86.3906 14.3464 86.1549 14.6016 85.8477 14.7812C85.543 14.9583 85.1771 15.0469 84.75 15.0469ZM84.75 14.2578C84.974 14.2578 85.1641 14.2018 85.3203 14.0898C85.4792 13.9753 85.6003 13.8125 85.6836 13.6016C85.7669 13.388 85.8086 13.1315 85.8086 12.832V12.8242C85.8086 12.5221 85.7669 12.2656 85.6836 12.0547C85.6003 11.8411 85.4792 11.6784 85.3203 11.5664C85.1641 11.4518 84.974 11.3945 84.75 11.3945C84.526 11.3945 84.3346 11.4518 84.1758 11.5664C84.0169 11.6784 83.8958 11.8411 83.8125 12.0547C83.7292 12.2656 83.6875 12.5221 83.6875 12.8242V12.832C83.6875 13.1315 83.7292 13.388 83.8125 13.6016C83.8958 13.8151 84.0156 13.9779 84.1719 14.0898C84.3307 14.2018 84.5234 14.2578 84.75 14.2578Z" fill="white"/>
<path d="M88.1813 14.9609V10.6914H89.1539V11.3477H89.2203C89.2932 11.1185 89.4234 10.9401 89.6109 10.8125C89.801 10.6849 90.0367 10.6211 90.318 10.6211C90.3909 10.6211 90.4625 10.6263 90.5328 10.6367C90.6057 10.6445 90.6656 10.6549 90.7125 10.668V11.5391C90.6344 11.5208 90.5549 11.5078 90.4742 11.5C90.3961 11.4896 90.3141 11.4844 90.2281 11.4844C90.012 11.4844 89.8232 11.5247 89.6617 11.6055C89.5003 11.6862 89.3753 11.8021 89.2867 11.9531C89.1982 12.1016 89.1539 12.2773 89.1539 12.4805V14.9609H88.1813Z" fill="white"/>
<path d="M35 30.9902V18.3076H37.2764L41.3105 28.415H41.4512L45.4941 18.3076H47.7705V30.9902H45.9688V21.6914H45.002L47.0498 18.6592L42.1104 30.9902H40.6514L35.7207 18.6592L37.7598 21.6914H36.8018V30.9902H35Z" fill="white"/>
<path d="M53.29 31.1484C52.6865 31.1484 52.1445 31.0342 51.6641 30.8057C51.1895 30.5713 50.8145 30.2402 50.5391 29.8125C50.2695 29.3848 50.1348 28.8838 50.1348 28.3096V28.292C50.1348 27.7236 50.2725 27.2373 50.5479 26.833C50.8232 26.4229 51.2246 26.1035 51.752 25.875C52.2852 25.6406 52.9297 25.5029 53.6855 25.4619L57.21 25.251V26.5957L53.9492 26.8066C53.293 26.8418 52.8096 26.9795 52.499 27.2197C52.1943 27.46 52.042 27.791 52.042 28.2129V28.2305C52.042 28.6699 52.2061 29.0127 52.5342 29.2588C52.8682 29.5049 53.293 29.6279 53.8086 29.6279C54.2832 29.6279 54.7051 29.5342 55.0742 29.3467C55.4434 29.1533 55.7334 28.8955 55.9443 28.5732C56.1553 28.2451 56.2607 27.876 56.2607 27.4658V24.4775C56.2607 23.9502 56.0967 23.5488 55.7686 23.2734C55.4463 22.9922 54.9658 22.8516 54.3271 22.8516C53.7939 22.8516 53.3604 22.9453 53.0264 23.1328C52.6924 23.3203 52.4668 23.584 52.3496 23.9238L52.3408 23.959H50.5039L50.5127 23.8887C50.5889 23.3672 50.7969 22.9102 51.1367 22.5176C51.4766 22.125 51.9248 21.8203 52.4814 21.6035C53.0381 21.3809 53.6797 21.2695 54.4062 21.2695C55.209 21.2695 55.8887 21.3984 56.4453 21.6562C57.0078 21.9082 57.4326 22.2744 57.7197 22.7549C58.0127 23.2295 58.1592 23.8008 58.1592 24.4688V30.9902H56.2607V29.6279H56.1201C55.9326 29.9502 55.6982 30.2256 55.417 30.4541C55.1416 30.6826 54.8223 30.8555 54.459 30.9727C54.1016 31.0898 53.7119 31.1484 53.29 31.1484Z" fill="white"/>
<path d="M64.8301 31.1748C63.8984 31.1748 63.0986 30.9756 62.4307 30.5771C61.7627 30.1729 61.2471 29.5986 60.8838 28.8545C60.5205 28.1104 60.3389 27.2256 60.3389 26.2002V26.1826C60.3389 25.1748 60.5176 24.3047 60.875 23.5723C61.2383 22.834 61.7539 22.2656 62.4219 21.8672C63.0957 21.4688 63.8955 21.2695 64.8213 21.2695C65.6182 21.2695 66.3066 21.4102 66.8867 21.6914C67.4668 21.9727 67.9268 22.3564 68.2666 22.8428C68.6123 23.3232 68.8262 23.8711 68.9082 24.4863L68.917 24.5303H67.0801L67.0713 24.5039C66.9658 24.041 66.7227 23.6543 66.3418 23.3438C65.9609 23.0273 65.457 22.8691 64.8301 22.8691C64.3027 22.8691 63.8486 23.0039 63.4678 23.2734C63.0869 23.5371 62.7939 23.918 62.5889 24.416C62.3896 24.9082 62.29 25.4971 62.29 26.1826V26.2002C62.29 26.8975 62.3926 27.501 62.5977 28.0107C62.8027 28.5146 63.0928 28.9014 63.4678 29.1709C63.8486 29.4404 64.3027 29.5752 64.8301 29.5752C65.4277 29.5752 65.9111 29.4434 66.2803 29.1797C66.6494 28.9102 66.9102 28.5176 67.0625 28.002L67.0801 27.958L68.9082 27.9492L68.8994 28.0371C68.7822 28.6523 68.5537 29.1973 68.2139 29.6719C67.874 30.1406 67.4229 30.5098 66.8604 30.7793C66.2979 31.043 65.6211 31.1748 64.8301 31.1748Z" fill="white"/>
<path d="M76.6514 31.2979C75.4209 31.2979 74.3633 31.0283 73.4785 30.4893C72.5996 29.9443 71.9199 29.1738 71.4395 28.1777C70.9648 27.1816 70.7275 26.0068 70.7275 24.6533V24.6357C70.7275 23.2764 70.9678 22.1016 71.4482 21.1113C71.9287 20.1152 72.6113 19.3477 73.4961 18.8086C74.3867 18.2695 75.4385 18 76.6514 18C77.8701 18 78.9219 18.2695 79.8066 18.8086C80.6914 19.3477 81.374 20.1152 81.8545 21.1113C82.335 22.1016 82.5752 23.2764 82.5752 24.6357V24.6533C82.5752 26.0068 82.335 27.1816 81.8545 28.1777C81.3799 29.168 80.7002 29.9355 79.8154 30.4805C78.9307 31.0254 77.876 31.2979 76.6514 31.2979ZM76.6514 29.5488C77.4541 29.5488 78.1455 29.3467 78.7256 28.9424C79.3115 28.5381 79.7627 27.9697 80.0791 27.2373C80.3955 26.499 80.5537 25.6377 80.5537 24.6533V24.6357C80.5537 23.6396 80.3955 22.7783 80.0791 22.0518C79.7627 21.3193 79.3115 20.7539 78.7256 20.3555C78.1455 19.9512 77.4541 19.749 76.6514 19.749C75.8545 19.749 75.1631 19.9512 74.5771 20.3555C73.9971 20.7539 73.5459 21.3193 73.2236 22.0518C72.9014 22.7783 72.7402 23.6396 72.7402 24.6357V24.6533C72.7402 25.6377 72.8955 26.499 73.2061 27.2373C73.5225 27.9697 73.9736 28.5381 74.5596 28.9424C75.1455 29.3467 75.8428 29.5488 76.6514 29.5488Z" fill="white"/>
<path d="M89.4922 31.2979C88.5371 31.2979 87.7051 31.1455 86.9961 30.8408C86.2871 30.5361 85.7275 30.1172 85.3174 29.584C84.9072 29.0449 84.6729 28.418 84.6143 27.7031L84.6055 27.5977H86.5479L86.5566 27.6855C86.5977 28.0723 86.7471 28.4062 87.0049 28.6875C87.2686 28.9688 87.6201 29.1885 88.0596 29.3467C88.5049 29.499 89.0117 29.5752 89.5801 29.5752C90.1191 29.5752 90.5938 29.4932 91.0039 29.3291C91.4199 29.1592 91.7451 28.9248 91.9795 28.626C92.2197 28.3271 92.3398 27.9844 92.3398 27.5977V27.5889C92.3398 27.0967 92.1553 26.6924 91.7861 26.376C91.417 26.0537 90.8135 25.8018 89.9756 25.6201L88.5869 25.3301C87.3037 25.0488 86.3691 24.6094 85.7832 24.0117C85.1973 23.4141 84.9043 22.6494 84.9043 21.7178V21.709C84.9102 20.9766 85.1064 20.332 85.4932 19.7754C85.8857 19.2188 86.4277 18.7852 87.1191 18.4746C87.8105 18.1582 88.6045 18 89.501 18C90.3975 18 91.1797 18.1553 91.8477 18.4658C92.5215 18.7705 93.0518 19.1865 93.4385 19.7139C93.8311 20.2412 94.0508 20.8359 94.0977 21.498L94.1064 21.6211H92.1816L92.1641 21.5068C92.1113 21.1553 91.9678 20.8477 91.7334 20.584C91.5049 20.3145 91.1973 20.1035 90.8105 19.9512C90.4297 19.793 89.9844 19.7168 89.4746 19.7227C88.9824 19.7227 88.543 19.7988 88.1562 19.9512C87.7695 20.0977 87.4619 20.3115 87.2334 20.5928C87.0107 20.8682 86.8994 21.2051 86.8994 21.6035V21.6123C86.8994 22.0869 87.0781 22.4824 87.4355 22.7988C87.7988 23.1094 88.3877 23.3496 89.2021 23.5195L90.5908 23.8271C91.4756 24.0146 92.1934 24.2637 92.7441 24.5742C93.2949 24.8848 93.6963 25.2686 93.9482 25.7256C94.2061 26.1768 94.335 26.7188 94.335 27.3516V27.3604C94.335 28.1631 94.1357 28.8604 93.7373 29.4521C93.3447 30.0381 92.7852 30.4922 92.0586 30.8145C91.3379 31.1367 90.4824 31.2979 89.4922 31.2979Z" fill="white"/>
</svg>
