<svg width="32" height="32" viewBox="0 0 32 32" fill="none" xmlns="http://www.w3.org/2000/svg">
<path d="M7.57663 11.9346V14.7202C7.57663 19.5422 10.7158 22.7379 15.5519 22.7379C17.0081 22.7379 18.3118 22.4482 19.4191 21.9067L20.9262 23.411C19.6835 24.1148 18.2315 24.5545 16.6265 24.6893V27.9841H21.8727C22.4665 27.9841 22.9332 28.4648 22.9332 29.0588C22.9332 29.6526 22.4665 30.1192 21.8727 30.1192H9.23106C8.63716 30.1192 8.17053 29.6526 8.17053 29.0588C8.17053 28.4648 8.63716 27.9841 9.23106 27.9841H14.4913V24.6893C9.08966 24.2368 5.44141 20.3482 5.44141 14.8051V11.9346C5.44141 11.3406 5.90805 10.874 6.50195 10.874C7.09585 10.874 7.57663 11.3406 7.57663 11.9346ZM17.0005 19.4928C16.5532 19.6276 16.0681 19.6977 15.5519 19.6977C12.7379 19.6977 10.8289 17.5908 10.8289 14.5789V13.3333L17.0005 19.4928ZM25.6765 11.9346V14.8051C25.6765 16.518 25.3268 18.073 24.6826 19.416L23.0462 17.7817C23.3724 16.8644 23.5412 15.8359 23.5412 14.7202V11.9346C23.5412 11.3406 24.0079 10.874 24.6018 10.874C25.1957 10.874 25.6765 11.3406 25.6765 11.9346ZM20.2748 5.11886V14.5789C20.2748 14.7211 20.2706 14.8613 20.2582 14.9974L10.8289 5.58026V5.11886C10.8289 2.0928 12.7379 0 15.5519 0C18.38 0 20.2748 2.0928 20.2748 5.11886Z" fill="#FF453A"/>
<path d="M25.9452 26.0892C26.3694 26.5134 27.0624 26.5134 27.4865 26.0892C27.8966 25.6509 27.9108 24.9722 27.4865 24.5479L5.61118 2.68666C5.18696 2.27658 4.47994 2.26245 4.05572 2.68666C3.64565 3.11088 3.64565 3.8179 4.05572 4.22798L25.9452 26.0892Z" fill="black"/>
</svg>
