<svg width="32" height="37" viewBox="0 0 32 37" fill="none" xmlns="http://www.w3.org/2000/svg">
<path d="M3.5025 17.586C3.5025 24.1075 7.89117 28.4844 14.0787 29.1231V31.8712H8.54156C7.60992 31.8712 6.81891 32.6212 6.81891 33.5469C6.81891 34.4551 7.60992 35.2227 8.54156 35.2227H22.8502C23.7759 35.2227 24.567 34.4551 24.567 33.5469C24.567 32.6212 23.7759 31.8712 22.8502 31.8712H17.3072V29.1231C23.4888 28.4844 27.8775 24.1075 27.8775 17.586V14.7032C27.8775 13.7833 27.1216 13.0626 26.1841 13.0626C25.2466 13.0626 24.4732 13.7833 24.4732 14.7032V17.4805C24.4732 22.6133 20.8345 25.9825 15.69 25.9825C10.5455 25.9825 6.91266 22.6133 6.91266 17.4805V14.7032C6.91266 13.7833 6.13336 13.0626 5.20172 13.0626C4.26422 13.0626 3.5025 13.7833 3.5025 14.7032V17.586ZM15.69 22.9122C18.7955 22.9122 21.2681 20.5684 21.2681 17.0997V6.84571C21.2681 3.38868 18.7955 1.02735 15.69 1.02735C12.5845 1.02735 10.0943 3.38282 10.0943 6.83985V17.0997C10.0943 20.5684 12.5845 22.9122 15.69 22.9122Z" fill="white"/>
</svg>
