<svg width="32" height="32" viewBox="0 0 32 32" fill="none" xmlns="http://www.w3.org/2000/svg">
<g clip-path="url(#clip0_316_7)">
<path d="M5.60742 14.8051C5.60742 20.3482 9.26982 24.2368 14.6573 24.6893V27.9841H9.41121C8.81732 27.9841 8.33654 28.4648 8.33654 29.0588C8.33654 29.6526 8.81732 30.1192 9.41121 30.1192H22.0386C22.6326 30.1192 23.1134 29.6526 23.1134 29.0588C23.1134 28.4648 22.6326 27.9841 22.0386 27.9841H16.7926V24.6893C22.1942 24.2368 25.8425 20.3482 25.8425 14.8051V11.9346C25.8425 11.3406 25.3759 10.874 24.782 10.874C24.188 10.874 23.7073 11.3406 23.7073 11.9346V14.7202C23.7073 19.5422 20.568 22.7379 15.732 22.7379C10.8818 22.7379 7.74264 19.5422 7.74264 14.7202V11.9346C7.74264 11.3406 7.276 10.874 6.66796 10.874C6.07406 10.874 5.60742 11.3406 5.60742 11.9346V14.8051ZM15.732 19.6977C18.546 19.6977 20.4408 17.5908 20.4408 14.5789V5.11886C20.4408 2.0928 18.546 0 15.732 0C12.9039 0 11.0091 2.0928 11.0091 5.11886V14.5789C11.0091 17.5908 12.9039 19.6977 15.732 19.6977Z" fill="black"/>
</g>
<defs>
<clipPath id="clip0_316_7">
<rect width="32" height="32" fill="white"/>
</clipPath>
</defs>
</svg>
